<svg width="270" height="307" viewBox="0 0 270 307" fill="none" xmlns="http://www.w3.org/2000/svg">
<path d="M239.878 233.636L239.873 233.774L246.211 307H199.956L193.96 262.027L191.321 305.847L143.819 305.27L148.865 247.739L153.156 221.072V221.066L153.8 217.053H238.617L238.727 218.506L239.878 233.636Z" fill="#2F2E41"/>
<path d="M117.636 276.085C122.535 277.06 127.643 271.033 129.046 262.623C129.66 258.942 129.462 255.414 128.634 252.529L129.385 247.681L141.991 182.465C141.991 182.465 165.203 131.74 165.203 122.934C165.202 114.128 158.488 109.809 158.488 109.809L149.402 109.902L120.911 185.922L115.779 242.098L114.949 249.806C113.243 252.186 111.919 255.411 111.306 259.092C109.903 267.502 112.737 275.11 117.636 276.085Z" fill="#FFB6B6"/>
<path d="M210.058 78.3853L201.613 57.0518L174.168 62.241L172.321 87.3405L210.058 78.3853Z" fill="#FFB6B6"/>
<path opacity="0.1" d="M210.058 78.3853L201.613 57.0518L174.168 62.241L172.321 87.3405L210.058 78.3853Z" fill="black"/>
<path d="M269.698 122.782C269.698 122.782 250.17 82.998 246.475 78.9619C244.831 77.1652 242.245 77.1402 239.882 77.6638L212.697 67.4303L203.482 61.7745L202.875 72.5346L172.624 78.4662C172.792 71.9042 173.64 69.4083 173.64 69.4083L162.556 83.5746L140.917 95.1062L140.928 95.21C139.34 95.8156 137.835 96.8518 136.694 98.5657C132.472 104.908 120.86 182.17 120.86 182.17L145.667 187.936L149.043 164.792L151.472 185.629L153.32 224.549C153.32 224.549 187.099 256.261 203.46 244.729C219.822 233.197 239.878 233.774 239.878 233.774L240.378 215.734C240.735 215.112 240.934 214.747 240.934 214.747L240.406 150.755V133.728C244.427 139.847 249.279 145.11 254.92 147.575C273.393 155.647 269.698 122.782 269.698 122.782V122.782Z" fill="#E6E6E6"/>
<path d="M185.021 65.9946C198.965 65.9946 210.27 53.6453 210.27 38.4118C210.27 23.1782 198.965 10.829 185.021 10.829C171.076 10.829 159.772 23.1782 159.772 38.4118C159.772 53.6453 171.076 65.9946 185.021 65.9946Z" fill="#FFB6B6"/>
<path d="M203.135 46.207C203.135 46.207 205.331 37.8122 210.271 38.4118C215.211 39.0115 216.309 34.2144 215.211 31.8159C214.113 29.4174 211.918 17.4249 211.918 17.4249C211.918 17.4249 213.015 9.03015 206.429 7.8309C199.842 6.63165 197.646 5.4324 196.549 3.03389C195.451 0.63539 178.984 -1.76311 173.495 1.83464C168.007 5.4324 163.615 12.3352 159.773 14.2804C155.931 16.2257 152.638 19.8234 154.833 25.8197C157.029 31.8159 160.213 43.5433 160.213 43.5433C160.213 43.5433 165.811 41.41 166.909 45.0077C168.006 48.6055 163.615 43.8085 169.104 34.2144C174.593 24.6204 174.593 15.0264 183.375 18.6242C192.158 22.2219 202.038 21.0227 200.94 28.2182C199.842 35.4137 203.135 46.207 203.135 46.207V46.207Z" fill="#2F2E41"/>
<path d="M201.591 264.872H9.83451C4.41166 264.872 0 260.053 0 254.129V142.853C0 136.929 4.41166 132.109 9.83451 132.109H201.591C207.014 132.109 211.425 136.929 211.425 142.853V254.129C211.425 260.053 207.014 264.872 201.591 264.872Z" fill="white"/>
<path d="M201.591 264.872H9.83451C4.41166 264.872 0 260.053 0 254.129V142.853C0 136.929 4.41166 132.109 9.83451 132.109H201.591C207.014 132.109 211.425 136.929 211.425 142.853V254.129C211.425 260.053 207.014 264.872 201.591 264.872ZM9.83451 133.903C5.3174 133.903 1.64229 137.918 1.64229 142.853V254.129C1.64229 259.064 5.3174 263.078 9.83451 263.078H201.591C206.108 263.078 209.783 259.064 209.783 254.129V142.853C209.783 137.918 206.108 133.903 201.591 133.903H9.83451Z" fill="#3F3D56"/>
<path d="M186.791 145.565C188.152 145.565 189.255 144.36 189.255 142.874C189.255 141.387 188.152 140.183 186.791 140.183C185.431 140.183 184.328 141.387 184.328 142.874C184.328 144.36 185.431 145.565 186.791 145.565Z" fill="#3F3D56"/>
<path d="M193.36 145.565C194.72 145.565 195.823 144.36 195.823 142.874C195.823 141.387 194.72 140.183 193.36 140.183C191.999 140.183 190.896 141.387 190.896 142.874C190.896 144.36 191.999 145.565 193.36 145.565Z" fill="#3F3D56"/>
<path d="M199.929 145.565C201.29 145.565 202.393 144.36 202.393 142.874C202.393 141.387 201.29 140.183 199.929 140.183C198.569 140.183 197.466 141.387 197.466 142.874C197.466 144.36 198.569 145.565 199.929 145.565Z" fill="#3F3D56"/>
<path d="M13.9597 186.381C13.2805 186.381 12.728 186.984 12.728 187.726C12.728 188.088 12.8559 188.423 13.0881 188.67C13.3222 188.932 13.629 189.072 13.9597 189.072H198.287C198.966 189.072 199.519 188.468 199.519 187.726C199.519 187.364 199.391 187.03 199.159 186.783C198.925 186.521 198.618 186.381 198.287 186.381H13.9597Z" fill="#E6E6E6"/>
<path d="M175.296 185.932V189.52H13.9602C13.5086 189.52 13.098 189.323 12.8024 188.991C12.4985 188.668 12.3179 188.22 12.3179 187.726C12.3179 186.739 13.0569 185.932 13.9602 185.932H175.296Z" fill="#009EDD"/>
<path d="M196.235 179.204H179.812C178.001 179.204 176.528 177.595 176.528 175.616C176.528 173.637 178.001 172.028 179.812 172.028H196.235C198.046 172.028 199.52 173.637 199.52 175.616C199.52 177.595 198.046 179.204 196.235 179.204Z" fill="#E6E6E6"/>
<path d="M88.6641 160.366H15.1913C13.3802 160.366 11.9067 158.757 11.9067 156.778C11.9067 154.799 13.3802 153.19 15.1913 153.19H88.6641C90.4752 153.19 91.9487 154.799 91.9487 156.778C91.9487 158.757 90.4752 160.366 88.6641 160.366Z" fill="#E6E6E6"/>
<path d="M13.9597 226.748C13.2805 226.748 12.728 227.351 12.728 228.093C12.728 228.455 12.8559 228.79 13.0881 229.037C13.3222 229.299 13.629 229.439 13.9597 229.439H198.287C198.966 229.439 199.519 228.835 199.519 228.093C199.519 227.732 199.391 227.397 199.159 227.15C198.925 226.888 198.618 226.748 198.287 226.748H13.9597Z" fill="#E6E6E6"/>
<path d="M112.067 226.299V229.888H13.9602C13.5086 229.888 13.098 229.69 12.8024 229.358C12.4985 229.035 12.3179 228.587 12.3179 228.093C12.3179 227.107 13.0569 226.299 13.9602 226.299H112.067Z" fill="#009EDD"/>
<path d="M196.235 219.571H179.812C178.001 219.571 176.528 217.962 176.528 215.983C176.528 214.004 178.001 212.395 179.812 212.395H196.235C198.046 212.395 199.52 214.004 199.52 215.983C199.52 217.962 198.046 219.571 196.235 219.571Z" fill="#E6E6E6"/>
<path d="M224.985 68.1177C239.189 68.1177 250.703 55.8043 250.703 40.6149C250.703 25.4255 239.189 13.1121 224.985 13.1121C210.782 13.1121 199.268 25.4255 199.268 40.6149C199.268 55.8043 210.782 68.1177 224.985 68.1177Z" fill="#009EDD"/>
<path d="M233.713 26.7423C230.289 33.553 226.865 40.3637 223.441 47.1744C221.259 42.9625 219.089 38.7431 216.901 34.5345C216.146 33.081 214.091 34.3883 214.848 35.8455C217.384 40.7242 219.894 45.6192 222.43 50.4979C222.863 51.3321 224.053 51.3514 224.483 50.4979C228.244 43.0164 232.005 35.5348 235.766 28.0533C236.503 26.5873 234.45 25.2752 233.713 26.7423Z" fill="white"/>
<path d="M260.487 113.109L234.865 99.7188C234.865 99.7188 233.835 90.7566 229.03 87.56C228.213 85.4309 227.273 83.092 226.42 81.2387C224.309 76.6556 227.475 68.0069 224.836 68.0069C222.197 68.0069 218.296 77.1027 218.503 79.5385C218.661 81.4083 220.076 84.6728 220.368 87.5304C217.15 88.8563 214.554 91.1288 212.847 92.9382C211.37 94.5041 210.821 96.8402 211.399 98.9985C213.072 105.253 217.253 118.169 223.253 118.169C231.17 118.169 233.281 116.44 233.281 116.44C233.281 116.44 249.643 138.926 261.782 140.656C273.921 142.386 260.487 113.109 260.487 113.109V113.109Z" fill="#FFB6B6"/>
</svg>
